<svg xmlns="http://www.w3.org/2000/svg" viewBox="0 0 64 64" role="img" aria-label="Balon de futbol con bandera de Colombia">
  <defs>
    <clipPath id="ball">
      <circle cx="32" cy="32" r="29"/>
    </clipPath>
    <radialGradient id="shine" cx="28%" cy="20%" r="72%">
      <stop offset="0" stop-color="#ffffff"/>
      <stop offset="0.56" stop-color="#f7f7f7"/>
      <stop offset="1" stop-color="#d5d7db"/>
    </radialGradient>
  </defs>
  <circle cx="32" cy="32" r="30" fill="#101820"/>
  <circle cx="32" cy="32" r="28" fill="url(#shine)"/>
  <g clip-path="url(#ball)">
    <path d="M0 36h64v20H0z" fill="#fcd116"/>
    <path d="M0 46h64v7H0z" fill="#003893"/>
    <path d="M0 53h64v7H0z" fill="#ce1126"/>
    <path d="M32 12 43 20 39 33H25L21 20z" fill="#111827"/>
    <path d="M32 12 43 20 39 33H25L21 20z" fill="none" stroke="#ffffff" stroke-width="2" stroke-linejoin="round"/>
    <path d="M21 20 9 17M43 20 55 17M25 33 16 44M39 33 48 44M32 12V3" fill="none" stroke="#111827" stroke-width="4" stroke-linecap="round" stroke-linejoin="round"/>
    <path d="M21 20 9 17M43 20 55 17M25 33 16 44M39 33 48 44M32 12V3" fill="none" stroke="#ffffff" stroke-width="1.5" stroke-linecap="round" stroke-linejoin="round"/>
    <path d="M8 34c8-4 16-6 24-6s16 2 24 6" fill="none" stroke="#111827" stroke-width="3" opacity="0.22"/>
    <path d="M7 37c8-4 16-6 25-6s17 2 25 6" fill="none" stroke="#ffffff" stroke-width="1.2" opacity="0.45"/>
  </g>
  <circle cx="32" cy="32" r="28" fill="none" stroke="#111827" stroke-width="4"/>
</svg>
